<?xml version="1.0" encoding="utf-8"?>
<!-- Generator: Adobe Illustrator 16.0.0, SVG Export Plug-In . SVG Version: 6.00 Build 0)  -->
<!DOCTYPE svg PUBLIC "-//W3C//DTD SVG 1.1//EN" "http://www.w3.org/Graphics/SVG/1.1/DTD/svg11.dtd">
<svg version="1.1" id="Layer_1" xmlns="http://www.w3.org/2000/svg" xmlns:xlink="http://www.w3.org/1999/xlink" x="0px" y="0px"
	 width="31.16px" height="24.991px" viewBox="0 0 31.16 24.991" enable-background="new 0 0 31.16 24.991" xml:space="preserve">
<g>
	<g>
		<g>
			<path fill-rule="evenodd" clip-rule="evenodd" d="M24.412,10.584l1.072,1.912L19.75,22.724H8.278L2.543,12.496L8.278,2.268H19.75
				l1.336,2.382l1.801-1.321L21.019,0H7.007L0,12.496l7.007,12.495h14.012l7.008-12.495l-1.812-3.232L24.412,10.584z M11.803,9.576
				c-0.782,0-1.416,0.647-1.416,1.445c0,0.798,0.634,1.445,1.416,1.445s1.416-0.647,1.416-1.445
				C13.219,10.223,12.585,9.576,11.803,9.576z M19.828,11.502c0,0.532,0.424,0.964,0.945,0.964s0.943-0.432,0.943-0.964
				c0-0.532-0.422-0.963-0.943-0.963S19.828,10.971,19.828,11.502z M15.107,6.685c0,1.064,0.846,1.927,1.888,1.927
				c1.043,0,1.889-0.863,1.889-1.927s-0.846-1.927-1.889-1.927C15.953,4.758,15.107,5.621,15.107,6.685z M14.163,19.21
				c0.521,0,0.944-0.431,0.944-0.963s-0.423-0.964-0.944-0.964s-0.944,0.432-0.944,0.964S13.642,19.21,14.163,19.21z M29.744,3.794
				c-0.783,0-1.418,0.647-1.418,1.445s0.635,1.445,1.418,1.445c0.781,0,1.416-0.647,1.416-1.445S30.525,3.794,29.744,3.794z"/>
		</g>
	</g>
</g>
</svg>
